<svg width="422" height="161" viewBox="0 0 422 161" fill="none" xmlns="http://www.w3.org/2000/svg">
<path d="M417.803 15.0244C417.012 14.6137 410.687 19.4801 396.088 22.886C388.994 24.541 369.324 30.1862 369.651 58.2278L362 62.7281L364.383 66.8998C371.775 62.1312 392.041 52.8323 412.403 28.9754C412.403 28.9754 409.253 44.7277 373.251 65.4273C385.402 71.7271 402.501 71.7271 415.553 56.4266C428.603 41.1269 417.803 15.0244 417.803 15.0244Z" fill="#116622"/>
<path d="M34.866 52.0224C26.3493 41.3764 24.5151 27.372 28.9448 15.312C23.8432 14.0894 18.6424 14.1518 13.7481 15.3396C7.78704 32.1618 15.826 50.9504 32.4598 58.0988C36.5467 59.8563 40.7872 60.7296 44.9822 60.8442C41.1309 58.5438 37.7013 55.5665 34.866 52.0224Z" fill="#116622"/>
<path d="M41.3265 3.21593C28.1483 15.2519 26.3973 35.6117 37.707 49.7497C41.8266 54.8982 47.1346 58.5337 52.9226 60.589C53.1234 60.4361 53.3249 60.2911 53.5206 60.1346C67.5547 48.9068 69.8298 28.4287 58.6025 14.3954C54.0271 8.67625 47.9146 4.91041 41.3265 3.21593ZM49.9026 36.4076C52.1116 46.6644 53.1125 55.149 52.1398 55.3592C51.168 55.5672 48.5915 47.4218 46.386 37.1629C44.1784 26.9047 43.1774 18.4199 44.1493 18.2105C45.1229 18.001 47.6979 26.1479 49.9026 36.4076Z" fill="#116622"/>
<g filter="url(#filter0_d_201_51)">
<path d="M45.6534 85.5069H40.9943L51.4631 56.416H56.5341L67.0028 85.5069H62.3438L54.1193 61.7001H53.892L45.6534 85.5069ZM46.4347 74.1148H61.5483V77.808H46.4347V74.1148ZM79.7017 85.9472C77.59 85.9472 75.7718 85.469 74.2472 84.5126C72.732 83.5467 71.5672 82.2162 70.7528 80.5211C69.9384 78.826 69.5312 76.8847 69.5312 74.6972C69.5312 72.4813 69.9479 70.5258 70.7812 68.8308C71.6146 67.1262 72.7888 65.7957 74.304 64.8393C75.8191 63.8828 77.6042 63.4046 79.6591 63.4046C81.3163 63.4046 82.7936 63.7124 84.0909 64.3279C85.3883 64.934 86.4347 65.7862 87.2301 66.8847C88.035 67.9832 88.5133 69.2664 88.6648 70.7342H84.5312C84.304 69.7114 83.7831 68.8308 82.9688 68.0921C82.1638 67.3535 81.0843 66.9842 79.7301 66.9842C78.5464 66.9842 77.5095 67.2967 76.6193 67.9217C75.7386 68.5372 75.0521 69.4179 74.5597 70.5637C74.0672 71.7001 73.821 73.0448 73.821 74.5978C73.821 76.1887 74.0625 77.5618 74.5455 78.7171C75.0284 79.8724 75.7102 80.7673 76.5909 81.4018C77.4811 82.0362 78.5275 82.3535 79.7301 82.3535C80.535 82.3535 81.2642 82.2067 81.9176 81.9131C82.5805 81.6101 83.1345 81.1792 83.5795 80.6205C84.0341 80.0618 84.3513 79.3895 84.5312 78.6035H88.6648C88.5133 80.0145 88.054 81.2739 87.2869 82.3819C86.5199 83.4898 85.4924 84.3611 84.2045 84.9955C82.9261 85.63 81.4252 85.9472 79.7017 85.9472ZM93.2067 85.5069V63.6887H97.2834V67.2398H97.5533C98.0078 66.0372 98.7512 65.0997 99.7834 64.4273C100.816 63.7455 102.051 63.4046 103.491 63.4046C104.949 63.4046 106.171 63.7455 107.156 64.4273C108.15 65.1092 108.884 66.0467 109.357 67.2398H109.585C110.105 66.0751 110.934 65.147 112.07 64.4558C113.207 63.755 114.561 63.4046 116.133 63.4046C118.112 63.4046 119.727 64.0249 120.977 65.2654C122.236 66.5059 122.866 68.3762 122.866 70.8762V85.5069H118.619V71.2739C118.619 69.7967 118.216 68.7266 117.411 68.0637C116.606 67.4008 115.645 67.0694 114.528 67.0694C113.145 67.0694 112.07 67.4955 111.303 68.3478C110.536 69.1906 110.153 70.2749 110.153 71.6006V85.5069H105.92V71.004C105.92 69.8203 105.55 68.8686 104.812 68.1489C104.073 67.4292 103.112 67.0694 101.928 67.0694C101.123 67.0694 100.38 67.2825 99.6982 67.7086C99.0258 68.1253 98.4813 68.7076 98.0646 69.4558C97.6574 70.2039 97.4538 71.0703 97.4538 72.0552V85.5069H93.2067ZM137.962 85.9472C135.812 85.9472 133.961 85.4879 132.408 84.5694C130.864 83.6414 129.671 82.3393 128.828 80.6631C127.995 78.9775 127.578 77.0031 127.578 74.7398C127.578 72.505 127.995 70.5353 128.828 68.8308C129.671 67.1262 130.845 65.7957 132.351 64.8393C133.866 63.8828 135.637 63.4046 137.663 63.4046C138.894 63.4046 140.088 63.6082 141.243 64.0154C142.398 64.4226 143.435 65.0618 144.354 65.933C145.272 66.8042 145.997 67.9359 146.527 69.3279C147.057 70.7105 147.322 72.3914 147.322 74.3705V75.8762H129.979V72.6944H143.161C143.161 71.577 142.933 70.5874 142.479 69.7256C142.024 68.8544 141.385 68.1679 140.561 67.666C139.747 67.1641 138.79 66.9131 137.692 66.9131C136.499 66.9131 135.457 67.2067 134.567 67.7938C133.686 68.3715 133.004 69.129 132.521 70.0665C132.048 70.9946 131.811 72.0031 131.811 73.0921V75.5779C131.811 77.0362 132.067 78.2768 132.578 79.2995C133.099 80.3222 133.823 81.1035 134.751 81.6433C135.679 82.1736 136.764 82.4387 138.004 82.4387C138.809 82.4387 139.543 82.3251 140.206 82.0978C140.869 81.8611 141.442 81.5107 141.925 81.0467C142.408 80.5826 142.777 80.0097 143.033 79.3279L147.053 80.0523C146.731 81.2361 146.153 82.273 145.32 83.1631C144.496 84.0438 143.459 84.7304 142.209 85.2228C140.968 85.7058 139.553 85.9472 137.962 85.9472ZM154.833 85.7768C154.057 85.7768 153.389 85.5022 152.83 84.9529C152.272 84.3942 151.992 83.7219 151.992 82.9359C151.992 82.1594 152.272 81.4965 152.83 80.9472C153.389 80.3885 154.057 80.1092 154.833 80.1092C155.61 80.1092 156.277 80.3885 156.836 80.9472C157.395 81.4965 157.674 82.1594 157.674 82.9359C157.674 83.4567 157.541 83.9349 157.276 84.3705C157.021 84.7967 156.68 85.1376 156.254 85.3933C155.827 85.6489 155.354 85.7768 154.833 85.7768ZM183.391 65.6063C183.117 64.7446 182.747 63.9728 182.283 63.291C181.829 62.5997 181.284 62.0126 180.65 61.5296C180.015 61.0372 179.291 60.6631 178.477 60.4075C177.672 60.1518 176.786 60.0239 175.82 60.0239C174.182 60.0239 172.705 60.4453 171.388 61.2881C170.072 62.1309 169.031 63.3667 168.263 64.9955C167.506 66.6148 167.127 68.5987 167.127 70.9472C167.127 73.3052 167.511 75.2986 168.278 76.9273C169.045 78.5561 170.096 79.7919 171.431 80.6347C172.766 81.4775 174.286 81.8989 175.991 81.8989C177.572 81.8989 178.95 81.577 180.124 80.933C181.308 80.2891 182.222 79.38 182.866 78.2058C183.519 77.022 183.846 75.63 183.846 74.0296L184.982 74.2427H176.658V70.6205H188.093V73.9302C188.093 76.3734 187.572 78.4946 186.531 80.2938C185.498 82.0836 184.068 83.4662 182.241 84.4415C180.423 85.4169 178.339 85.9046 175.991 85.9046C173.358 85.9046 171.048 85.2986 169.059 84.0864C167.08 82.8743 165.536 81.1556 164.428 78.9302C163.32 76.6953 162.766 74.0438 162.766 70.9756C162.766 68.6556 163.088 66.5722 163.732 64.7256C164.376 62.879 165.281 61.3118 166.445 60.0239C167.62 58.7266 168.997 57.737 170.579 57.0552C172.17 56.3639 173.907 56.0183 175.792 56.0183C177.364 56.0183 178.827 56.2503 180.181 56.7143C181.545 57.1783 182.757 57.8364 183.817 58.6887C184.888 59.541 185.773 60.5542 186.474 61.7285C187.174 62.8933 187.648 64.1859 187.894 65.6063H183.391ZM193.324 85.5069V63.6887H197.429V67.1546H197.656C198.054 65.9804 198.755 65.0571 199.759 64.3847C200.772 63.7029 201.918 63.362 203.196 63.362C203.461 63.362 203.774 63.3715 204.134 63.3904C204.503 63.4094 204.792 63.433 205 63.4614V67.5239C204.83 67.4766 204.527 67.4245 204.091 67.3677C203.655 67.3014 203.22 67.2683 202.784 67.2683C201.78 67.2683 200.885 67.4813 200.099 67.9075C199.323 68.3241 198.707 68.9065 198.253 69.6546C197.798 70.3933 197.571 71.2361 197.571 72.183V85.5069H193.324ZM217.298 85.9472C215.148 85.9472 213.297 85.4879 211.744 84.5694C210.2 83.6414 209.007 82.3393 208.164 80.6631C207.331 78.9775 206.914 77.0031 206.914 74.7398C206.914 72.505 207.331 70.5353 208.164 68.8308C209.007 67.1262 210.181 65.7957 211.687 64.8393C213.202 63.8828 214.973 63.4046 216.999 63.4046C218.23 63.4046 219.424 63.6082 220.579 64.0154C221.734 64.4226 222.771 65.0618 223.69 65.933C224.608 66.8042 225.333 67.9359 225.863 69.3279C226.393 70.7105 226.658 72.3914 226.658 74.3705V75.8762H209.315V72.6944H222.496C222.496 71.577 222.269 70.5874 221.815 69.7256C221.36 68.8544 220.721 68.1679 219.897 67.666C219.083 67.1641 218.126 66.9131 217.028 66.9131C215.835 66.9131 214.793 67.2067 213.903 67.7938C213.022 68.3715 212.34 69.129 211.857 70.0665C211.384 70.9946 211.147 72.0031 211.147 73.0921V75.5779C211.147 77.0362 211.403 78.2768 211.914 79.2995C212.435 80.3222 213.159 81.1035 214.087 81.6433C215.015 82.1736 216.1 82.4387 217.34 82.4387C218.145 82.4387 218.879 82.3251 219.542 82.0978C220.205 81.8611 220.778 81.5107 221.261 81.0467C221.744 80.5826 222.113 80.0097 222.369 79.3279L226.388 80.0523C226.067 81.2361 225.489 82.273 224.656 83.1631C223.832 84.0438 222.795 84.7304 221.545 85.2228C220.304 85.7058 218.888 85.9472 217.298 85.9472ZM240.774 85.9472C238.625 85.9472 236.773 85.4879 235.22 84.5694C233.677 83.6414 232.483 82.3393 231.641 80.6631C230.807 78.9775 230.391 77.0031 230.391 74.7398C230.391 72.505 230.807 70.5353 231.641 68.8308C232.483 67.1262 233.658 65.7957 235.163 64.8393C236.679 63.8828 238.449 63.4046 240.476 63.4046C241.707 63.4046 242.9 63.6082 244.055 64.0154C245.211 64.4226 246.248 65.0618 247.166 65.933C248.085 66.8042 248.809 67.9359 249.339 69.3279C249.87 70.7105 250.135 72.3914 250.135 74.3705V75.8762H232.791V72.6944H245.973C245.973 71.577 245.746 70.5874 245.291 69.7256C244.837 68.8544 244.197 68.1679 243.374 67.666C242.559 67.1641 241.603 66.9131 240.504 66.9131C239.311 66.9131 238.269 67.2067 237.379 67.7938C236.499 68.3715 235.817 69.129 235.334 70.0665C234.86 70.9946 234.624 72.0031 234.624 73.0921V75.5779C234.624 77.0362 234.879 78.2768 235.391 79.2995C235.911 80.3222 236.636 81.1035 237.564 81.6433C238.492 82.1736 239.576 82.4387 240.817 82.4387C241.622 82.4387 242.356 82.3251 243.018 82.0978C243.681 81.8611 244.254 81.5107 244.737 81.0467C245.22 80.5826 245.589 80.0097 245.845 79.3279L249.865 80.0523C249.543 81.2361 248.965 82.273 248.132 83.1631C247.308 84.0438 246.271 84.7304 245.021 85.2228C243.781 85.7058 242.365 85.9472 240.774 85.9472ZM259.094 72.5523V85.5069H254.847V63.6887H258.924V67.2398H259.194C259.696 66.0845 260.482 65.1565 261.552 64.4558C262.631 63.755 263.99 63.4046 265.629 63.4046C267.115 63.4046 268.417 63.7171 269.535 64.3421C270.652 64.9576 271.519 65.8762 272.134 67.0978C272.75 68.3194 273.058 69.8298 273.058 71.629V85.5069H268.81V72.1404C268.81 70.559 268.398 69.3232 267.575 68.433C266.751 67.5334 265.619 67.0836 264.18 67.0836C263.195 67.0836 262.319 67.2967 261.552 67.7228C260.794 68.1489 260.193 68.7739 259.748 69.5978C259.312 70.4122 259.094 71.397 259.094 72.5523ZM283.001 72.5523V85.5069H278.754V56.416H282.944V67.2398H283.214C283.725 66.0656 284.506 65.1328 285.558 64.4415C286.609 63.7503 287.982 63.4046 289.677 63.4046C291.173 63.4046 292.48 63.7124 293.597 64.3279C294.724 64.9434 295.595 65.862 296.211 67.0836C296.836 68.2957 297.148 69.8109 297.148 71.629V85.5069H292.901V72.1404C292.901 70.54 292.489 69.2995 291.665 68.4188C290.842 67.5287 289.696 67.0836 288.228 67.0836C287.224 67.0836 286.325 67.2967 285.529 67.7228C284.743 68.1489 284.123 68.7739 283.668 69.5978C283.223 70.4122 283.001 71.397 283.001 72.5523ZM312.006 85.9472C309.961 85.9472 308.176 85.4785 306.651 84.541C305.127 83.6035 303.943 82.2919 303.1 80.6063C302.257 78.9207 301.836 76.951 301.836 74.6972C301.836 72.434 302.257 70.4548 303.1 68.7597C303.943 67.0647 305.127 65.7484 306.651 64.8109C308.176 63.8734 309.961 63.4046 312.006 63.4046C314.052 63.4046 315.837 63.8734 317.362 64.8109C318.886 65.7484 320.07 67.0647 320.913 68.7597C321.755 70.4548 322.177 72.434 322.177 74.6972C322.177 76.951 321.755 78.9207 320.913 80.6063C320.07 82.2919 318.886 83.6035 317.362 84.541C315.837 85.4785 314.052 85.9472 312.006 85.9472ZM312.021 82.3819C313.346 82.3819 314.445 82.0315 315.316 81.3308C316.187 80.63 316.831 79.6972 317.248 78.5325C317.674 77.3677 317.887 76.0845 317.887 74.683C317.887 73.291 317.674 72.0126 317.248 70.8478C316.831 69.6736 316.187 68.7313 315.316 68.0211C314.445 67.3109 313.346 66.9558 312.021 66.9558C310.685 66.9558 309.577 67.3109 308.697 68.0211C307.826 68.7313 307.177 69.6736 306.751 70.8478C306.334 72.0126 306.126 73.291 306.126 74.683C306.126 76.0845 306.334 77.3677 306.751 78.5325C307.177 79.6972 307.826 80.63 308.697 81.3308C309.577 82.0315 310.685 82.3819 312.021 82.3819ZM340.739 76.4586V63.6887H345V85.5069H340.824V81.7285H340.597C340.095 82.8933 339.29 83.8639 338.182 84.6404C337.083 85.4075 335.715 85.791 334.077 85.791C332.675 85.791 331.435 85.4832 330.355 84.8677C329.285 84.2427 328.442 83.3194 327.827 82.0978C327.221 80.8762 326.918 79.3658 326.918 77.5665V63.6887H331.165V77.0552C331.165 78.5419 331.577 79.7256 332.401 80.6063C333.224 81.487 334.295 81.9273 335.611 81.9273C336.406 81.9273 337.197 81.7285 337.983 81.3308C338.778 80.933 339.437 80.3317 339.957 79.5268C340.488 78.7219 340.748 77.6991 340.739 76.4586ZM367.056 69.0154L363.207 69.6972C363.046 69.2048 362.79 68.7361 362.44 68.291C362.099 67.8459 361.635 67.4813 361.048 67.1972C360.46 66.9131 359.727 66.7711 358.846 66.7711C357.643 66.7711 356.639 67.041 355.835 67.5808C355.03 68.1111 354.627 68.7976 354.627 69.6404C354.627 70.3696 354.897 70.9567 355.437 71.4018C355.977 71.8469 356.848 72.2114 358.05 72.4955L361.516 73.291C363.524 73.755 365.02 74.47 366.005 75.4359C366.99 76.4018 367.482 77.6565 367.482 79.2001C367.482 80.5069 367.103 81.6717 366.346 82.6944C365.598 83.7076 364.551 84.5031 363.207 85.0808C361.871 85.6584 360.323 85.9472 358.562 85.9472C356.119 85.9472 354.125 85.4264 352.582 84.3847C351.038 83.3336 350.091 81.8421 349.741 79.9103L353.846 79.2853C354.102 80.3554 354.627 81.165 355.423 81.7143C356.218 82.254 357.255 82.5239 358.533 82.5239C359.925 82.5239 361.038 82.2351 361.871 81.6575C362.705 81.0703 363.121 80.3554 363.121 79.5126C363.121 78.8308 362.866 78.2578 362.354 77.7938C361.853 77.3298 361.081 76.9794 360.039 76.7427L356.346 75.933C354.31 75.469 352.804 74.7304 351.829 73.7171C350.863 72.7039 350.38 71.4207 350.38 69.8677C350.38 68.5798 350.74 67.4529 351.46 66.487C352.179 65.5211 353.174 64.7683 354.442 64.2285C355.711 63.6792 357.165 63.4046 358.803 63.4046C361.161 63.4046 363.017 63.916 364.371 64.9387C365.726 65.952 366.621 67.3109 367.056 69.0154ZM381.555 85.9472C379.406 85.9472 377.554 85.4879 376.001 84.5694C374.458 83.6414 373.265 82.3393 372.422 80.6631C371.589 78.9775 371.172 77.0031 371.172 74.7398C371.172 72.505 371.589 70.5353 372.422 68.8308C373.265 67.1262 374.439 65.7957 375.945 64.8393C377.46 63.8828 379.231 63.4046 381.257 63.4046C382.488 63.4046 383.681 63.6082 384.837 64.0154C385.992 64.4226 387.029 65.0618 387.947 65.933C388.866 66.8042 389.59 67.9359 390.121 69.3279C390.651 70.7105 390.916 72.3914 390.916 74.3705V75.8762H373.572V72.6944H386.754C386.754 71.577 386.527 70.5874 386.072 69.7256C385.618 68.8544 384.979 68.1679 384.155 67.666C383.34 67.1641 382.384 66.9131 381.286 66.9131C380.092 66.9131 379.051 67.2067 378.161 67.7938C377.28 68.3715 376.598 69.129 376.115 70.0665C375.642 70.9946 375.405 72.0031 375.405 73.0921V75.5779C375.405 77.0362 375.661 78.2768 376.172 79.2995C376.693 80.3222 377.417 81.1035 378.345 81.6433C379.273 82.1736 380.357 82.4387 381.598 82.4387C382.403 82.4387 383.137 82.3251 383.8 82.0978C384.463 81.8611 385.036 81.5107 385.518 81.0467C386.001 80.5826 386.371 80.0097 386.626 79.3279L390.646 80.0523C390.324 81.2361 389.747 82.273 388.913 83.1631C388.089 84.0438 387.053 84.7304 385.803 85.2228C384.562 85.7058 383.146 85.9472 381.555 85.9472Z" fill="#116622"/>
</g>
<g clip-path="url(#clip0_201_51)">
<path d="M43.5732 91.5402L43.5705 91.5421C42.095 92.2772 40.6561 93.1493 39.2758 94.1521C37.8957 95.1548 36.6224 96.2535 35.4673 97.4295C25.3728 107.671 23.7949 123.879 32.4223 135.754C34.928 139.203 38.0466 141.943 41.5268 143.944C44.889 140.534 47.3056 136.459 48.7142 132.107C54.8283 139.545 63.9714 143.249 73.1125 142.778C73.5849 142.754 74.0574 142.717 74.5282 142.673C74.716 142.239 74.8974 141.8 75.0662 141.358C78.3399 132.81 77.6416 122.971 72.4566 114.857C77.0313 114.862 81.6569 113.82 85.9375 111.677C85.1114 107.749 83.469 103.935 80.9633 100.487C72.336 88.6121 56.4345 85.1084 43.5732 91.5402ZM79.1159 108.614C78.5401 108.056 77.4224 107.133 75.9204 106.09C74.4159 105.044 72.5192 103.867 70.3463 102.753C69.6429 102.392 68.9087 102.04 68.1528 101.701L70.4175 106.059L68.4864 107.072L65.0352 100.435C61.8891 99.2984 58.4522 98.4841 54.9557 98.3517C54.806 98.3447 54.656 98.3431 54.5069 98.3398L57.1996 101.904L55.4583 103.219L51.834 98.422C49.5259 98.6154 47.2151 99.1422 44.9501 100.102L48.9842 105.654L60.7411 107.941L60.2999 110.066L50.8541 108.228L57.5364 117.426L66.527 119.174L66.087 121.299L59.4063 119.999L66.9012 130.315L65.1363 131.597L57.7382 121.415L56.9377 127.947L54.781 127.709L55.8683 118.841L49.0892 109.51L47.9175 119.062L45.7606 118.825L47.2193 106.937L43.1842 101.383C41.438 103.394 40.1598 105.61 39.244 107.939L42.5146 112.623L40.726 113.873L38.3877 110.523C37.6565 113.169 37.3252 115.902 37.2784 118.571C37.2615 119.49 37.2816 120.398 37.3256 121.295L42.1535 126.204L40.5931 127.728L37.6258 124.712C38.1174 128.617 39.0364 132.03 39.8315 134.298C40.1703 135.268 40.4877 136.03 40.7225 136.508L38.7681 137.476C38.3369 136.594 37.7856 135.178 37.227 133.335C36.6719 131.495 36.1175 129.24 35.713 126.724C35.6082 126.067 35.5137 125.394 35.4312 124.706C35.1861 125.144 34.9404 125.603 34.7192 126.058C34.4115 126.69 34.152 127.315 34.0073 127.817L31.9202 127.238C32.1208 126.55 32.4239 125.837 32.7659 125.133C33.1083 124.43 33.489 123.741 33.8456 123.129C34.4474 122.1 34.9801 121.298 35.1385 121.061C35.0098 117.91 35.2101 114.575 35.9635 111.281C33.6425 113.606 31.7859 115.769 31.5053 116.101C31.4796 116.131 31.4672 116.146 31.4666 116.146L29.8102 114.765C29.8291 114.744 33.382 110.523 37.2035 107.142L37.251 107.099C38.408 104.18 40.107 101.387 42.5172 98.925L42.6484 98.7914L42.8168 98.7073C45.9381 97.1586 49.1596 96.405 52.3275 96.2162C56.6194 93.7489 61.3967 91.8091 61.4218 91.7981L62.2226 93.8003C62.2226 93.8003 62.2059 93.8072 62.1693 93.8223C62.1324 93.8369 62.0766 93.8598 62.0052 93.891C61.8606 93.9506 61.6477 94.0402 61.3806 94.1548C60.8427 94.3854 60.0805 94.7201 59.1865 95.1321C58.4448 95.4737 57.6079 95.8718 56.7373 96.3061C59.1731 96.5356 61.5399 97.0415 63.7807 97.7256C64.6831 98.002 65.5611 98.3073 66.4199 98.6319C66.6334 98.5758 66.8831 98.5113 67.1655 98.4436C68.0462 98.2293 69.2085 97.9748 70.3688 97.8128C71.144 97.7051 71.916 97.6372 72.6331 97.6586L72.5387 99.8225C72.0316 99.8056 71.3839 99.8555 70.7099 99.9474C70.4237 99.9859 70.1324 100.034 69.8438 100.085C73.546 101.827 76.6021 103.823 78.6216 105.358C79.492 106.021 80.1674 106.596 80.6401 107.054L79.1159 108.614Z" fill="#116622"/>
</g>
<path d="M166.189 138.047L166.529 138.375L166.997 138.447C167.857 138.578 168.823 138.568 169.869 138.43C170.914 138.288 172.034 138.013 173.162 137.58C175.127 136.825 177.132 135.587 178.697 133.708C180.264 131.834 181.347 129.305 181.444 126.199C181.479 125.061 181.66 124.069 181.907 123.418C182.028 123.092 182.164 122.856 182.267 122.728L182.386 122.604L182.409 122.589C182.52 122.6 182.598 122.627 182.68 122.686C182.761 122.75 182.874 122.86 182.992 123.159C183.2 123.676 183.335 124.809 182.946 126.674C182.197 130.309 182.484 133.588 183.546 136.35C184.82 139.674 187.196 142.218 190.048 143.826C192.901 145.436 196.236 146.135 199.526 145.815L199.934 145.775L200.265 145.531C202.923 143.568 204.933 140.817 205.977 137.711C207.02 134.608 207.083 131.128 205.806 127.806C204.747 125.042 202.766 122.414 199.777 120.213C198.24 119.088 197.582 118.154 197.391 117.632C197.279 117.332 197.289 117.173 197.308 117.071C197.328 116.973 197.367 116.902 197.443 116.818L197.471 116.814C197.576 116.793 198.032 116.879 198.61 117.231C199.191 117.573 199.886 118.136 200.576 118.855C202.726 121.098 205.224 122.253 207.642 122.597C210.062 122.946 212.38 122.524 214.346 121.77C215.475 121.337 216.491 120.792 217.361 120.199C218.232 119.603 218.956 118.963 219.507 118.29L219.807 117.924L219.84 117.452C219.979 115.461 219.624 113.358 218.83 111.287C217.469 107.746 214.816 104.287 210.977 101.705C207.599 99.4328 203.296 97.859 198.195 97.5356C199.053 94.904 199.326 92.7965 199.336 92.7359L199.527 91.2764L198.069 91.0684C197.904 91.0458 194.113 90.5256 189.073 92.4564C187.786 92.9502 186.418 93.6129 185.017 94.4759L183.248 89.63L179.136 91.2085L178.878 91.3076L174.766 92.8862L176.694 97.6708C175.075 97.9668 173.616 98.3898 172.328 98.8839C167.292 100.821 164.821 103.745 164.714 103.872L163.77 105.002L164.888 105.959C164.937 105.997 166.549 107.381 168.948 108.762C165.373 112.416 163.228 116.465 162.239 120.414C161.114 124.901 161.458 129.247 162.815 132.789C163.611 134.859 164.754 136.66 166.189 138.047ZM165.129 121.14C166.112 117.238 168.377 113.168 172.464 109.52L173.944 108.099L172.109 107.062C170.614 106.355 169.275 105.502 168.322 104.831C168.255 104.785 168.206 104.747 168.143 104.702C169.182 103.835 170.926 102.613 173.396 101.667C174.952 101.069 176.795 100.579 178.942 100.349L180.902 100.14L178.663 94.5826L179.946 94.0901L180.204 93.991L181.487 93.4986L183.542 99.128L185.138 97.9706C186.888 96.7046 188.586 95.8357 190.141 95.239C192.337 94.3958 194.251 94.0954 195.601 94.0041C195.769 93.9924 195.927 93.984 196.077 93.979C195.822 95.1331 195.389 96.7597 194.708 98.3871L194.038 100.386L196.089 100.451C201.567 100.427 205.974 101.936 209.315 104.178C212.654 106.421 214.922 109.418 216.048 112.355C216.638 113.891 216.896 115.396 216.871 116.763C216.564 117.072 216.161 117.411 215.68 117.737C215.005 118.199 214.183 118.641 213.278 118.988C211.696 119.596 209.873 119.91 208.068 119.647C206.261 119.379 204.451 118.575 202.723 116.788C201.764 115.795 200.772 114.99 199.746 114.454C199.231 114.187 198.703 113.984 198.139 113.888C197.579 113.792 196.963 113.807 196.367 114.036C195.972 114.186 195.601 114.432 195.303 114.743C194.871 115.189 194.522 115.789 194.385 116.489C194.243 117.188 194.322 117.958 194.609 118.7C195.124 120.016 196.204 121.275 198.009 122.612C200.598 124.523 202.179 126.678 203.024 128.874C204.036 131.512 203.992 134.249 203.151 136.763C202.354 139.144 200.821 141.297 198.82 142.873C196.278 143.041 193.698 142.466 191.513 141.231C189.207 139.925 187.342 137.92 186.329 135.282C185.487 133.085 185.221 130.425 185.865 127.274C186.312 125.072 186.273 123.414 185.774 122.091C185.492 121.348 185.035 120.722 184.463 120.297C183.891 119.87 183.231 119.656 182.612 119.614C182.183 119.583 181.742 119.648 181.348 119.801C180.752 120.03 180.283 120.431 179.931 120.877C179.402 121.552 179.081 122.342 178.85 123.219C178.624 124.095 178.5 125.065 178.466 126.1C178.377 128.584 177.57 130.393 176.407 131.802C175.242 133.204 173.677 134.191 172.094 134.797C171.189 135.145 170.283 135.366 169.472 135.475C168.896 135.553 168.37 135.571 167.935 135.548C167.002 134.549 166.187 133.257 165.597 131.721C164.469 128.786 164.148 125.041 165.129 121.14Z" fill="#116622"/>
<path d="M179.419 114.048C181.008 111.832 182.515 110.056 183.62 108.837C183.922 108.505 184.19 108.219 184.425 107.972L196.008 138.146L197.747 137.478L186.164 107.304C187.83 107.432 190.843 107.759 194.454 108.582C199.7 109.777 206.198 112.025 211.669 116.18L212.794 114.696C206.827 110.17 199.843 107.854 194.349 106.65C190.797 105.873 187.871 105.564 186.23 105.442C186.508 104.913 186.878 104.255 187.339 103.533C188.324 101.986 189.72 100.174 191.415 98.8385L190.262 97.3758C188.194 99.0114 186.631 101.137 185.563 102.857C185.008 103.754 184.592 104.537 184.317 105.09C183.742 104.864 182.909 104.56 181.896 104.265C179.952 103.701 177.368 103.167 174.737 103.335L174.858 105.194C177.154 105.043 179.561 105.523 181.375 106.054C182.055 106.252 182.651 106.455 183.13 106.632C181.993 107.821 180.025 110.007 177.905 112.962C174.629 117.533 170.988 123.928 169.581 131.284L171.411 131.634C172.737 124.668 176.237 118.478 179.419 114.048Z" fill="#116622"/>
<path d="M294.342 22.0104C275.821 35.7297 277.299 51.9565 277.806 65.8791L282.793 65.4646L282.738 59.1949C283.847 59.1479 284.943 58.9368 285.989 58.5683C311.112 47.3831 300.677 5.50688 300.677 5.50688C300.427 11.0914 284.694 18.7803 274.292 26.1484C263.889 33.5164 263.643 45.2566 265.677 49.8243C267.429 52.911 270.185 55.3053 273.487 56.6093C271.504 32.1788 294.342 22.0104 294.342 22.0104Z" fill="#116622"/>
<path d="M154.102 54.0058C152.126 51.8489 156.222 37.638 132.173 27.9408C128.218 28.6585 123.772 48.6445 147.14 54.7584C154.125 58.2503 153.025 64.0712 153.025 67.3066H157.518C157.518 67.3066 155.68 57.0436 163.89 53.2826C169.477 50.7246 184.905 49.9043 189 26.8513C181.194 22.3378 153.472 31.136 154.102 54.0058ZM148.434 50.1167C147.958 50.4464 147.305 50.3273 146.975 49.8512C144.688 46.5388 138.364 38.896 135.568 36.1073C135.157 35.699 135.157 35.0344 135.568 34.626C135.976 34.2158 136.641 34.2158 137.049 34.626C140.019 37.6015 146.27 45.1563 148.7 48.6573C149.029 49.1334 148.911 49.7871 148.434 50.1167ZM177.746 33.108C170.099 37.9401 163.85 45.9804 161.032 50.3474C160.719 50.8326 160.069 50.9717 159.584 50.6586C159.098 50.3436 158.959 49.6954 159.274 49.2084C162.22 44.6655 168.549 36.4624 176.623 31.3373C177.112 31.0261 177.759 31.1726 178.07 31.6615C178.38 32.1504 178.235 32.7968 177.746 33.108Z" fill="#116622"/>
<g clip-path="url(#clip1_201_51)">
<path d="M311.805 97.3523C312.145 97.4087 312.486 97.4666 312.829 97.5243C318.735 95.3093 325.44 94.7201 333.18 96.7233C328.458 97.0024 324.021 97.7829 319.872 99.1766C321.656 99.7635 323.428 100.592 325.212 101.444C329.812 100.554 334.828 100.644 340.394 102.083C336.638 102.305 333.084 102.937 329.675 103.849C331.597 105.065 333.479 106.464 335.257 108.085C338.26 108.059 341.426 108.406 344.785 109.273C342.25 109.424 339.777 109.774 337.397 110.236C340.845 113.906 343.856 118.436 346.035 124.156C342.45 119.615 338.935 116.096 335.461 113.309C335.354 115.52 335.411 117.77 335.554 120.005C334.358 117.21 333.615 114.381 333.252 111.584C330.901 109.915 328.59 108.577 326.251 107.573C326.171 111.392 326.573 115.18 327.429 118.94C324.627 114.913 323.202 110.683 322.801 106.321C320.328 105.57 317.831 105.184 315.331 105.014C315.54 108.347 316.886 111.799 318.548 115.712C314.595 112.568 312.502 108.824 311.446 104.938C309.742 104.997 308.049 105.155 306.317 105.409C296.23 125.702 339.108 113.957 350.645 141.415C361.483 115.602 333.157 73.4302 311.805 97.3523ZM298.241 103.856C297.492 102.782 297.235 101.376 298.069 100.147C303.719 98.6255 316.164 98.5718 325.825 104.607C314.678 100.603 307.187 101.368 298.243 103.855L298.241 103.856Z" fill="#116622"/>
</g>
<rect x="28.5" y="30.0069" width="376" height="81" rx="19.5" fill="#116622" fill-opacity="0.2" stroke="#116622"/>
<defs>
<filter id="filter0_d_201_51" x="36.9943" y="56.0182" width="357.922" height="37.929" filterUnits="userSpaceOnUse" color-interpolation-filters="sRGB">
<feFlood flood-opacity="0" result="BackgroundImageFix"/>
<feColorMatrix in="SourceAlpha" type="matrix" values="0 0 0 0 0 0 0 0 0 0 0 0 0 0 0 0 0 0 127 0" result="hardAlpha"/>
<feOffset dy="4"/>
<feGaussianBlur stdDeviation="2"/>
<feComposite in2="hardAlpha" operator="out"/>
<feColorMatrix type="matrix" values="0 0 0 0 0 0 0 0 0 0 0 0 0 0 0 0 0 0 0.25 0"/>
<feBlend mode="normal" in2="BackgroundImageFix" result="effect1_dropShadow_201_51"/>
<feBlend mode="normal" in="SourceGraphic" in2="effect1_dropShadow_201_51" result="shape"/>
</filter>
<clipPath id="clip0_201_51">
<rect width="60" height="60" fill="white" transform="translate(15 111.774) rotate(-36)"/>
</clipPath>
<clipPath id="clip1_201_51">
<rect width="60" height="60" fill="white" transform="translate(302.386 152.154) rotate(-99)"/>
</clipPath>
</defs>
</svg>
